<?xml version="1.0" encoding="UTF-8" standalone="no"?>
<!-- Created with Inkscape (http://www.inkscape.org/) -->

<svg
   width="512"
   height="512"
   viewBox="0 0 135.46666 135.46667"
   version="1.1"
   id="svg1"
   xml:space="preserve"
   xmlns:xlink="http://www.w3.org/1999/xlink"
   xmlns="http://www.w3.org/2000/svg"
   xmlns:svg="http://www.w3.org/2000/svg"><defs
     id="defs1"><linearGradient
       id="linearGradient94"><stop
         style="stop-color:#36464f;stop-opacity:1;"
         offset="0"
         id="stop95" /><stop
         style="stop-color:#171a20;stop-opacity:1;"
         offset="1"
         id="stop96" /></linearGradient><linearGradient
       id="swatch93"><stop
         style="stop-color:#d40000;stop-opacity:1;"
         offset="0"
         id="stop94" /></linearGradient><linearGradient
       xlink:href="#linearGradient94"
       id="linearGradient96"
       x1="45.228317"
       y1="219.11638"
       x2="87.649765"
       y2="257.95721"
       gradientUnits="userSpaceOnUse"
       gradientTransform="matrix(2.9096212,0,0,2.9096212,-124.50133,-626.16442)"
       spreadMethod="pad" /></defs><g
     id="layer1"><rect
       style="fill:#ffffff;fill-opacity:1;fill-rule:nonzero;stroke-width:0.265205"
       id="rect97"
       width="135.46666"
       height="135.46666"
       x="3.5603841e-06"
       y="3.5603841e-06"
       ry="17.991667" /><path
       style="fill:url(#linearGradient96);fill-opacity:1;fill-rule:nonzero;stroke-width:2.90963"
       d="m 50.321253,124.02499 c -1.75036,-0.52793 -3.553533,-1.07319 -5.010854,-2.22385 -1.000177,-0.75325 -1.73017,-1.79542 -2.420504,-2.82429 -1.294824,-2.07156 -1.872842,-4.63538 -1.341995,-7.0425 0.683924,-3.4246 3.260489,-6.49884 6.654857,-7.4777 1.972704,-0.53788 4.040666,-0.31837 6.046708,-0.14025 0.556645,0.12657 1.178361,0.49013 1.728128,0.14549 0.676868,-0.47535 0.683272,-1.37655 0.971423,-2.07876 1.849387,-5.581699 3.945747,-11.077887 5.798981,-16.658278 -5.51e-4,-0.678028 0.797997,-1.134491 1.403976,-0.88403 1.056077,0.222295 2.138771,0.262739 3.213298,0.194654 0.612386,-0.160314 1.131887,0.413807 0.850189,0.999484 -0.478522,1.407557 -0.857469,2.848082 -1.327911,4.25919 -0.922263,2.907148 -1.968198,5.772688 -3.017128,8.635786 -0.611352,1.807804 -1.164737,3.635574 -1.84497,5.419514 -0.408311,1.15583 -0.824624,2.36163 -0.741203,3.60488 0.275424,1.76224 1.600757,3.18892 1.708771,4.995 0.46345,3.36142 -0.854486,7.00457 -3.605579,9.06007 -1.881374,1.42228 -4.22542,2.07316 -6.537157,2.34818 -0.852212,0.0744 -1.736917,0.0145 -2.52903,-0.33268 z m 46.682934,-0.0719 c -2.338296,-0.58344 -4.549343,-2.03954 -5.676737,-4.21401 -0.816101,-1.72125 -0.879313,-3.76726 -2.076968,-5.31008 -1.88906,-3.01303 -3.43424,-6.22922 -5.386666,-9.2039 -0.441879,-0.96864 0.04377,-2.00648 0.364629,-2.93112 0.471075,-1.42231 0.909537,-2.863974 1.577505,-4.209934 2.066339,3.642004 4.120744,7.296394 6.440148,10.785524 0.335921,0.5547 0.662351,1.11532 0.969981,1.68625 0.555757,0.47776 1.396717,0.29038 1.938869,-0.11201 2.515377,-1.16295 5.674292,-1.02207 7.943252,0.63253 2.10562,1.43854 3.59796,3.89589 3.54997,6.48545 -0.12797,2.99027 -2.46618,5.67434 -5.35952,6.34932 -1.23253,0.44019 -2.638234,0.68955 -3.886547,0.16642 -0.132632,-0.0415 -0.26504,-0.0838 -0.397916,-0.12453 z m -24.15175,-2.04766 c -2.401675,-0.78446 -4.056614,-3.38686 -3.728975,-5.89527 0.479084,-1.98506 2.217669,-3.56562 4.210235,-3.94876 0.91463,-0.42018 1.217113,-1.46503 1.486156,-2.34982 1.357915,-3.74207 2.94626,-7.42049 3.834477,-11.314144 0.13026,-1.525429 -0.64701,-2.926237 -1.432284,-4.172632 -1.524728,-2.723843 -3.194846,-5.362198 -4.786941,-8.046441 -0.349972,-0.388725 -0.748075,-0.961949 -0.456438,-1.492111 0.544877,-0.722111 1.552731,-0.601681 2.289153,-0.991627 0.650991,-0.27467 1.227115,-0.690366 1.844359,-1.02864 0.592407,-0.09398 0.989279,0.479622 1.186568,0.95811 0.950517,2.103278 2.286403,3.998632 3.477279,5.967749 1.193693,1.906295 2.401869,3.814659 3.355411,5.855437 0.386482,1.134782 -0.227504,2.256465 -0.501732,3.340015 -0.780542,2.965684 -1.827526,5.852584 -2.971991,8.695174 -0.675436,1.71731 -1.349805,3.43691 -1.912977,5.1951 -0.07713,0.84981 0.656528,1.42626 1.067853,2.07909 1.3478,2.35109 0.218337,5.72248 -2.272694,6.78931 -1.457501,0.6675 -3.142783,0.73529 -4.687459,0.35946 z M 29.308153,107.46549 c -1.047477,-0.47669 -2.025259,-1.29908 -2.362783,-2.43576 -0.892134,-1.97561 -0.486487,-4.58917 1.254478,-5.974064 0.939492,-0.70535 2.221708,-0.95674 2.926519,-1.960038 0.600348,-1.115054 0.670074,-2.417022 1.174062,-3.569523 0.491489,-1.4922 1.003306,-2.982333 1.339161,-4.519399 0.460852,-0.468769 -0.134133,-1.404212 -0.753834,-1.152908 -1.790176,0.495276 -3.427169,1.397142 -5.139768,2.095916 -2.037056,0.904922 -4.114711,1.739401 -6.270839,2.313412 -2.058146,0.949845 -3.314706,3.099269 -5.489237,3.850562 -2.450139,0.972891 -5.34554,0.356721 -7.3733216,-1.266733 -1.8885096,-1.403164 -3.1338333,-3.715353 -3.0525875,-6.09039 -0.033029,-1.87234 0.7038286,-3.857951 2.2885125,-4.949264 2.5307946,-1.917411 6.1643286,-2.297146 9.0115826,-0.872479 1.270939,0.672733 2.232266,1.80225 2.931853,3.038867 0.277549,0.429343 0.584206,0.933203 1.104475,1.081039 0.772006,0.07274 1.327887,-0.579101 2.006132,-0.827204 3.885081,-1.844845 8.022495,-3.070174 11.974186,-4.755573 3.853589,-1.559877 7.71509,-3.101337 11.55434,-4.695983 1.0428,-0.454541 2.079172,-0.923631 3.120447,-1.381605 0.627026,-0.09688 1.124559,0.425968 1.419727,0.915861 2.01631,2.458776 4.314189,4.692115 6.867025,6.590614 0.697074,0.06402 1.208014,0.931573 0.8503,1.555484 -1.071304,3.274603 -2.239978,6.516184 -3.336616,9.782231 -0.05449,0.546923 -0.337912,1.193615 -0.937218,1.300806 -1.074508,-0.0029 -1.966418,-0.732614 -3.015472,-0.861569 -0.522877,-0.194071 -1.209437,-0.321802 -1.432197,-0.907568 -0.164188,-0.738405 0.325679,-1.397695 0.482131,-2.092803 1.194945,-3.588263 2.704146,-7.075967 3.627939,-10.751256 0.06402,-0.729178 -0.881118,-1.205076 -1.471954,-0.827291 -1.29397,0.483434 -2.52623,1.116683 -3.825585,1.587285 -2.481489,0.989825 -5.001603,1.897191 -7.398229,3.085539 -0.87618,0.217057 -1.409008,1.068501 -1.604784,1.89911 -0.257152,0.856561 -0.530488,1.71007 -0.898307,2.526045 -0.348725,1.004227 -0.580037,2.059167 -1.115558,2.988326 -0.620949,1.42007 -0.837672,2.980091 -1.481102,4.392218 -0.262069,0.717251 -0.527744,1.440201 -0.647686,2.197521 0.136227,1.03763 1.17838,1.658254 1.341819,2.689364 0.591262,1.79934 0.255699,4.00791 -1.201834,5.3059 -1.771589,1.50177 -4.391729,1.50701 -6.465777,0.69531 z m 66.341113,-6.80302 c -2.163782,-0.62504 -4.153974,-2.256934 -4.756649,-4.486283 -0.379735,-1.584463 0.09529,-3.367537 1.277868,-4.502464 0.280953,-0.66933 -0.11728,-1.374563 -0.528016,-1.892301 -1.743865,-2.910465 -3.297766,-5.929574 -4.792292,-8.974058 0.224416,-0.55146 0.969173,-0.535632 1.408678,-0.268849 1.05727,0.562285 2.240578,0.838873 3.35468,1.252128 1.061777,0.745066 1.425927,2.056346 2.135425,3.081493 0.877871,1.444859 1.590106,2.989344 2.56508,4.374963 1.235645,0.986012 3.04614,0.644482 4.25121,1.687435 2.32661,1.7648 2.71474,5.538638 0.78694,7.734822 -1.37954,1.596394 -3.63,2.379024 -5.702924,1.993204 z m 15.754574,-9.177757 c -3.27678,-1.076413 -6.09416,-3.657247 -7.21385,-6.948959 -1.08582,-4.044607 0.87062,-8.684958 4.51956,-10.73624 1.28227,-0.615677 2.70448,-0.820224 4.06947,-1.174324 1.93022,-0.348311 3.91918,0.03812 5.73768,0.707764 2.00354,0.765609 3.80781,2.157864 4.85225,4.054384 0.99008,1.705648 1.64862,3.673949 1.5426,5.664189 -0.29408,4.138819 -3.5734,7.855454 -7.64143,8.670438 -1.94024,0.41721 -3.94101,0.11056 -5.86628,-0.237134 z M 98.482278,81.368979 c -2.898858,-0.871722 -5.665057,-2.119601 -8.5356,-3.07352 -2.217436,-0.506215 -4.321747,-1.431533 -6.568781,-1.820782 -0.481663,-0.02036 -1.094911,-0.342928 -0.956648,-0.91013 0.110009,-0.565746 0.538466,-1.017057 0.596973,-1.601194 0.259741,-1.105074 0.612187,-2.185708 0.878338,-3.289152 0.553387,-0.313365 1.112544,0.158863 1.672805,0.185925 3.023255,0.870646 5.940981,2.080262 8.994833,2.848984 2.075335,0.631388 4.148239,1.271971 6.203922,1.96513 0.52533,0.324918 0.54159,1.123142 0.1631,1.566714 -0.62449,1.296295 -0.75424,2.778835 -1.4614,4.040679 -0.24279,0.273794 -0.69978,0.309612 -0.987561,0.08728 z M 65.819444,79.793594 c -4.200165,-0.52833 -8.223855,-2.945583 -10.347383,-6.656106 -1.836214,-3.142072 -1.961149,-7.293025 -0.05677,-10.434922 1.607627,-2.779007 4.546085,-4.690511 7.703682,-5.181801 3.3826,-0.688563 7.08658,-0.270013 10.031957,1.60963 2.925234,1.908917 5.13728,5.011183 5.688792,8.489025 0.219444,2.154544 -0.193053,4.382966 -1.270093,6.270729 -0.654586,1.285295 -1.580797,2.455951 -2.805771,3.239396 -1.836457,1.25777 -3.977442,2.009793 -6.144313,2.460987 -0.922048,0.169641 -1.862864,0.249064 -2.800098,0.203091 z M 23.571742,76.966141 c -2.549915,-1.003267 -3.813297,-4.356868 -2.560349,-6.793529 1.027461,-1.832886 3.143002,-2.862689 5.198287,-2.919135 1.288826,0.0291 2.456686,0.679133 3.724497,0.823335 1.696773,0.02618 3.176904,-0.916619 4.654784,-1.622434 1.02952,-0.509853 2.065793,-1.027736 3.177137,-1.336477 0.658897,-0.01744 1.107855,0.85962 0.719029,1.387831 -0.642061,1.602386 -1.085768,3.279697 -1.797513,4.854908 -0.859111,0.833809 -2.121182,0.842654 -3.19784,1.196814 -1.10023,0.33126 -1.953518,1.254484 -2.353144,2.313236 -1.27093,1.989366 -3.838959,2.890301 -6.114957,2.469511 -0.493898,-0.07682 -0.982505,-0.195525 -1.449931,-0.37406 z m 71.954359,-5.65578 c -0.756498,0.02996 -1.364964,-0.870587 -1.045869,-1.559674 0.323712,-1.53145 0.903767,-2.993244 1.533677,-4.42117 0.822602,-0.993315 2.113698,-1.341422 3.249491,-1.838851 1.06322,-0.279033 1.95967,-1.290912 1.91026,-2.421299 0.12797,-1.145429 0.49119,-2.391243 1.48382,-3.083238 1.23319,-0.934658 2.77187,-1.373079 4.28955,-1.548936 1.36371,0.0145 2.70518,0.482618 3.84034,1.224572 2.16255,1.582745 2.83008,4.920285 1.31042,7.159296 -1.11699,1.644665 -3.17027,2.420719 -5.10639,2.388101 -0.83454,0.0059 -1.6508,-0.188543 -2.47327,-0.290381 -0.76955,-0.05004 -1.51889,0.215023 -2.16582,0.613874 -1.0849,0.536998 -2.17167,1.070361 -3.264324,1.591475 -0.825405,0.575115 -0.561979,1.860964 -1.424179,2.406461 -0.671123,0.42466 -1.490262,0.06518 -2.137706,-0.220259 z m -48.65372,-6.089779 c -1.091444,-0.379852 -2.171703,-0.807886 -3.304695,-1.051304 -2.592058,-1.210375 -5.462343,-1.61423 -8.111051,-2.670509 -1.232939,-0.416745 -2.45157,-0.883943 -3.618326,-1.4629 -0.382765,-0.474588 -0.276794,-1.186193 0.07383,-1.647427 0.479676,-1.03018 0.684076,-2.156087 1.037376,-3.230145 0.7629,-0.428267 1.622647,-0.02618 2.403057,0.124238 1.530756,0.368328 2.985262,0.982025 4.474366,1.482363 0.58328,0.01744 1.170065,0.184762 1.648909,0.524141 2.63544,0.592252 5.142437,1.617515 7.696617,2.47501 0.46189,0.217349 1.245224,0.307402 1.248141,0.962358 0.01979,1.203534 -0.669983,2.251493 -0.892526,3.408215 -0.13887,0.545262 -0.243098,1.205775 -0.766291,1.520248 -0.670531,0.266521 -1.252172,-0.352358 -1.88938,-0.434176 z m -30.17762,-3.991739 c -2.410373,-1.164255 -4.478099,-3.073841 -5.755952,-5.430983 -0.460304,-1.263358 -0.602734,-2.62538 -0.571158,-3.962701 0.29912,-3.307132 2.758866,-6.215444 5.848468,-7.324358 1.312249,-0.476393 2.730524,-0.581372 4.112967,-0.46202 1.473042,-0.0145 3.051496,0.119006 4.282125,1.012404 2.402311,1.487542 4.372264,3.849398 4.966129,6.655378 0.497618,2.270204 -0.181409,4.739135 -1.721222,6.471842 -1.405251,1.758867 -3.421561,3.181177 -5.719943,3.357122 -1.387604,0.124238 -2.783397,0.02328 -4.16938,-0.07011 -0.429484,-0.04887 -0.856841,-0.124825 -1.272034,-0.246444 z m 63.397338,-2.756284 c -1.684474,-1.594007 -3.547477,-2.993854 -5.515851,-4.217758 -0.732625,-0.03725 -1.196834,-0.960002 -0.855203,-1.589934 0.441548,-2.289348 1.641523,-4.33097 2.282955,-6.558633 0.769208,-1.960911 1.595261,-3.909717 2.111866,-5.95713 -0.156918,-0.634151 0.679886,-1.219654 1.220745,-0.851064 1.332385,0.501677 2.724047,0.84379 4.020509,1.440205 0.356001,0.563592 0.06328,1.244648 -0.202422,1.779989 -1.556876,3.826355 -2.761805,7.782741 -4.237876,11.639415 -0.149758,0.647652 0.729142,1.213312 1.258026,0.812803 1.739622,-0.793541 3.483813,-1.584726 5.284339,-2.230982 1.472534,-0.67282 3.110043,-0.918596 4.535721,-1.704979 1.146259,-0.531269 2.369002,-0.963056 3.358618,-1.770419 0.734357,-0.761651 0.886152,-1.856367 1.181187,-2.829778 0.269635,-1.003967 0.680729,-1.960853 0.973975,-2.957661 0.404576,-1.200363 0.790646,-2.414664 1.30357,-3.572229 0.478886,-0.796334 0.472488,-1.805855 1.054246,-2.550253 0.529181,-0.966955 0.250875,-2.237324 -0.512947,-2.99851 -1.285625,-1.927594 -1.342181,-4.719901 0.175428,-6.538995 1.34657,-1.606664 3.618295,-2.244481 5.642325,-1.846329 2.39226,0.190871 4.49366,2.236306 4.71599,4.632262 0.22111,1.573814 -0.35876,3.330293 -1.7213,4.231462 -0.90124,0.679892 -2.04195,0.980978 -2.89994,1.718074 -0.7525,0.876115 -0.76978,2.095043 -1.22549,3.113584 -0.68254,1.968505 -1.45396,3.904916 -2.13245,5.874874 -0.45876,0.359192 -0.32279,1.250817 0.27558,1.374737 1.10086,-0.08264 2.0438,-0.727229 3.09273,-1.006699 2.37937,-0.915601 4.72729,-1.916246 7.14382,-2.732658 0.80305,-0.721586 2.09121,-0.444852 2.83763,-1.258702 0.92643,-1.762502 2.15067,-3.48366 3.94536,-4.441768 2.0889,-0.89919 4.49158,-1.289283 6.70397,-0.619488 1.98762,0.4182 3.87561,1.599447 4.87238,3.404664 1.1933,1.901291 1.54511,4.419627 0.55399,6.481704 -1.35297,3.001186 -4.75858,4.871257 -8.0157,4.501881 -2.06588,-0.08583 -4.08546,-0.969136 -5.54473,-2.434945 -0.63434,-0.514682 -1.26285,-1.109844 -2.06589,-1.336185 -1.17568,-0.08787 -2.13044,0.729675 -3.20017,1.067686 -6.81138,2.85358 -13.71746,5.475151 -20.521545,8.346453 -2.607324,1.055493 -5.228708,2.077644 -7.877884,3.023794 -0.662877,0.111148 -1.13698,-0.47613 -1.508117,-0.932707 -0.160515,-0.176912 -0.332139,-0.343541 -0.50742,-0.505781 z M 44.162556,55.123526 C 43.119986,54.719207 41.887405,54.73518 41.005172,53.97187 39.382601,51.345528 38.140541,48.512431 36.751503,45.762169 36.212395,44.897315 35.164808,44.64668 34.371619,44.092485 33.501924,43.552168 32.771932,42.77239 32.389791,41.813611 c -0.773264,-1.803442 -0.385341,-4.143388 1.186973,-5.399414 2.235569,-1.912143 5.946986,-1.836319 8.018898,0.289508 1.600798,1.632588 1.834728,4.48748 0.362218,6.276752 -0.588971,0.534177 -0.714975,1.447302 -0.373962,2.151488 0.469963,1.273309 1.290757,2.379169 1.780783,3.644359 0.827682,1.858258 1.546451,3.762226 2.263619,5.665063 0.40047,0.510784 -0.238444,1.203593 -0.804902,1.003527 -0.245602,-0.04074 -0.469351,-0.166134 -0.660862,-0.321309 z M 57.225879,53.308475 C 53.637458,47.361444 50.045486,41.41252 46.174223,35.643585 43.89129,32.116571 41.675518,28.54312 39.238432,25.118817 c -0.477028,-0.495918 -1.242744,-0.346538 -1.812782,-0.11785 -0.892817,0.295414 -1.831216,0.506187 -2.776645,0.417791 -2.639015,-0.05819 -5.308338,-1.44937 -6.592864,-3.803776 -1.341916,-2.420574 -1.193231,-5.678038 0.608468,-7.829878 1.631332,-1.911709 4.226407,-2.795855 6.695021,-2.696783 2.766852,0.115224 5.509597,1.76841 6.633534,4.345141 0.590726,1.322946 0.615897,2.806447 0.533785,4.226836 0.148472,1.34986 1.084967,2.400903 1.818446,3.478685 1.944267,2.947622 3.72876,6.006128 5.871247,8.818713 0.468184,0.454687 1.370244,0.07682 1.415494,-0.561934 0.510572,-2.06717 1.174444,-4.093371 1.931002,-6.082564 0.272572,-0.844373 0.597622,-1.709171 0.586224,-2.605653 -0.201289,-1.062013 -1.196647,-1.748713 -1.41858,-2.805021 -0.616222,-1.861547 -0.147408,-4.161572 1.456244,-5.386088 2.224537,-1.750951 5.719592,-1.739778 7.829451,0.197274 1.881558,1.787874 2.053163,5.115404 0.242081,7.012099 -0.823072,0.839223 -2.143601,0.790719 -3.019923,1.538054 -0.716242,0.797761 -0.834988,1.910808 -1.264547,2.857803 -1.299315,3.652535 -2.432342,7.371555 -4.009284,10.918964 -0.240102,0.796423 0.299607,1.527756 0.71959,2.15312 2.386719,3.712532 4.60351,7.537547 7.162469,11.136953 0.407018,0.402224 0.539928,1.045338 1.059083,1.331849 0.453703,0.191454 0.882243,-0.240043 1.041467,-0.632756 0.265617,-0.695749 0.458261,-1.418615 0.715158,-2.118641 1.579881,-4.59234 3.423669,-9.095678 4.777348,-13.764194 0.799191,-2.570883 1.73823,-5.094979 2.654273,-7.625681 0.19663,-1.171238 -0.399142,-2.27381 -0.994547,-3.235412 -1.415345,-3.038866 -0.851422,-6.854282 1.31834,-9.396912 1.605892,-2.065656 4.106633,-3.371436 6.704076,-3.603391 2.40474,-0.384594 4.966602,-0.179242 7.152574,0.956101 2.147967,1.067482 3.878972,2.892541 4.93347,5.037748 0.884931,1.65895 1.259912,3.592217 0.980528,5.457371 -0.17166,1.428364 -0.763731,2.81026 -1.736117,3.877102 -1.559785,1.942346 -3.726852,3.496608 -6.213168,3.941838 -1.898273,0.38829 -3.856395,0.166721 -5.732457,-0.232769 -0.499437,-0.08408 -1.119081,-0.306995 -1.538342,0.09921 -0.575766,0.63418 -0.610966,1.538403 -0.956788,2.289465 -1.958973,5.526592 -3.963539,11.037879 -5.803888,16.605613 -0.365951,0.635257 -0.370753,1.407325 -0.711257,2.049944 -0.435809,0.598481 -1.243331,0.730694 -1.934398,0.655305 -2.501589,0.131802 -5.072407,0.04627 -7.472824,0.876028 -0.534491,0.150143 -1.062806,0.322765 -1.581947,0.519689 -0.332288,0.32128 -1.137592,0.487304 -1.281578,-0.109404 z"
       id="path63" /></g></svg>
